<mxfile host="app.diagrams.net" modified="2024-06-14T18:07:07.718Z" agent="Mozilla/5.0 (Windows NT 10.0; Win64; x64) AppleWebKit/537.36 (KHTML, like Gecko) Chrome/125.0.0.0 Safari/537.36 Edg/125.0.0.0" version="24.5.4" etag="fVES5nczq58yLottJBET" type="github">
  <diagram name="페이지-1" id="jDKwSZufJ_BInj_SFSC5">
    <mxGraphModel>
      <root>
        <mxCell id="0" />
        <mxCell id="1" parent="0" />
      </root>
    </mxGraphModel>
  </diagram>
</mxfile>
